<svg width="23" height="23" viewBox="0 0 23 23" fill="none" xmlns="http://www.w3.org/2000/svg">
<path d="M6.82812 21.0776V22.1786L7.07093 22.2618C9.94161 23.246 13.0583 23.246 15.929 22.2618L16.1719 22.1786V21.0776C18.1491 20.0066 19.831 18.2857 21.0454 16.0878C22.3241 13.7733 23 11.0685 23 8.26564C23 7.3836 21.8079 6.66719 19.4568 6.13635C17.4411 5.6812 14.8012 5.41975 11.979 5.39311C12.0464 5.06734 12.1262 4.88999 12.1741 4.80603L11.5494 4.45056C11.4177 4.68209 11.3168 4.99946 11.2481 5.39132C8.34064 5.40574 5.61308 5.66893 3.54339 6.13626C1.19209 6.66719 0 7.3836 0 8.26564C0 11.0685 0.675895 13.7733 1.95464 16.0878C3.16897 18.2857 4.85093 20.0066 6.82812 21.0776ZM20.4162 15.7402C19.2313 17.8849 17.5825 19.5451 15.648 20.5416L15.4531 20.6419V21.6626C12.8823 22.4875 10.1177 22.4875 7.54688 21.6626V20.6419L7.35205 20.5416C5.41758 19.5452 3.76872 17.8849 2.58377 15.7402C1.53323 13.8388 0.909578 11.6583 0.756395 9.37714C1.34496 9.76817 2.2739 10.1074 3.54321 10.3949C5.58738 10.8565 8.27349 11.1189 11.1406 11.1392V12.2188H11.8594V11.1392C14.7266 11.1189 17.4126 10.8566 19.4568 10.395C20.7248 10.1087 21.6538 9.76937 22.2436 9.37714C22.0904 11.6582 21.4668 13.8388 20.4162 15.7402ZM19.2984 6.8374C21.6531 7.36905 22.2812 7.98533 22.2812 8.26564C22.2812 8.54595 21.6531 9.16224 19.2984 9.69389C17.3039 10.1442 14.6742 10.4003 11.8594 10.4204V6.82814C11.8594 6.55686 11.8687 6.3194 11.8842 6.11105C14.6897 6.13248 17.31 6.38836 19.2984 6.8374ZM3.70156 6.8374C5.70139 6.38584 8.34033 6.12952 11.164 6.11065C11.1487 6.33484 11.1409 6.574 11.1407 6.82814V10.4205C8.32578 10.4003 5.69591 10.1442 3.70161 9.69393C1.34694 9.16224 0.71875 8.54595 0.71875 8.26564C0.71875 7.98533 1.34694 7.36905 3.70156 6.8374V6.8374Z" fill="black"/>
<path d="M18.2922 16.6185C17.8654 16.0503 17.1194 15.0852 16.0406 14.2303C14.619 13.1038 13.0882 12.5475 11.4931 12.5782C8.05148 12.6439 5.60638 15.5385 4.71585 16.6351C4.4524 16.0995 4.31446 15.5109 4.3125 14.9141H3.59375C3.59375 16.519 4.4306 18.0205 5.95013 19.1421C7.43691 20.2394 9.4079 20.8438 11.5 20.8438C13.5921 20.8438 15.5631 20.2394 17.0499 19.1421C18.5694 18.0205 19.4062 16.519 19.4062 14.9141H18.6875C18.6857 15.5048 18.5505 16.0874 18.2922 16.6185V16.6185ZM11.5 20.125C8.71866 20.125 6.30142 18.9737 5.10699 17.2939C5.13394 17.2607 5.16346 17.2244 5.19589 17.1843C5.96185 16.238 8.29258 13.3583 11.5069 13.2969C12.9309 13.27 14.3067 13.7731 15.5942 14.7936C16.6606 15.6387 17.3928 16.6165 17.7861 17.1417C17.8273 17.1967 17.8636 17.2451 17.8968 17.2888C16.7037 18.9714 14.2842 20.125 11.5 20.125Z" fill="black"/>
<path d="M14.6291 15.199L14.1209 15.7072L15.9178 17.5041L16.426 16.9959L14.6291 15.199Z" fill="black"/>
<path d="M12.2188 3.95312C13.1505 3.95312 14.0006 3.55471 14.4374 2.91327C14.4455 2.90141 14.4564 2.89172 14.4692 2.88505C14.4819 2.87838 14.4961 2.87493 14.5105 2.875H23V2.15625H14.5105C14.379 2.15612 14.2494 2.18816 14.1331 2.2496C14.0168 2.31103 13.9173 2.39999 13.8433 2.50871C13.5431 2.94957 12.9054 3.23438 12.2188 3.23438C11.2447 3.23438 10.4219 2.65839 10.4219 1.97656C10.4219 1.29474 11.2447 0.71875 12.2188 0.71875C12.9055 0.71875 13.5431 1.00355 13.8432 1.44433C13.9172 1.55305 14.0168 1.64201 14.133 1.70346C14.2493 1.76491 14.3789 1.79698 14.5104 1.79688H23V1.07812H14.5104C14.4961 1.0782 14.4819 1.07475 14.4691 1.06809C14.4564 1.06143 14.4455 1.05175 14.4373 1.0399C14.0006 0.398412 13.1505 0 12.2188 0C10.8316 0 9.70312 0.886668 9.70312 1.97656C9.70312 3.06646 10.8316 3.95312 12.2188 3.95312Z" fill="black"/>
</svg>
