<svg width="25" height="23" viewBox="0 0 25 23" fill="none" xmlns="http://www.w3.org/2000/svg">
<path d="M19.5312 0.359375H5.46875C3.7457 0.359375 2.34375 1.64917 2.34375 3.23438V20.125C2.34375 21.5122 3.5707 22.6406 5.07812 22.6406H22.2656C22.4816 22.6406 22.6562 22.4796 22.6562 22.2812V3.23438C22.6562 1.64917 21.2543 0.359375 19.5312 0.359375ZM3.125 3.23438C3.125 2.0452 4.17617 1.07812 5.46875 1.07812H19.5312C20.8238 1.07812 21.875 2.0452 21.875 3.23438V17.6094H5.07812C4.31367 17.6094 3.62148 17.8994 3.125 18.3659V3.23438ZM5.07812 21.9219C4.00117 21.9219 3.125 21.1158 3.125 20.125C3.125 19.1342 4.00117 18.3281 5.07812 18.3281H21.875V19.0469H5.07812C4.43203 19.0469 3.90625 19.5306 3.90625 20.125C3.90625 20.7194 4.43203 21.2031 5.07812 21.2031H21.875V21.9219H5.07812ZM21.875 19.7656V20.4844H5.07812C4.8625 20.4844 4.6875 20.323 4.6875 20.125C4.6875 19.927 4.8625 19.7656 5.07812 19.7656H21.875Z" fill="black"/>
<path d="M8.20312 9.68336V14.375C8.20312 14.5734 8.37773 14.7344 8.59375 14.7344H16.4062C16.6223 14.7344 16.7969 14.5734 16.7969 14.375V9.68336C18.5523 9.50403 19.9219 8.13086 19.9219 6.46875C19.9219 4.68553 18.3449 3.23438 16.4062 3.23438C16.0957 3.23438 15.7914 3.27391 15.4957 3.34686C14.877 2.41931 13.7676 1.79688 12.5 1.79688C11.2324 1.79688 10.123 2.41931 9.5043 3.34686C9.20859 3.27391 8.9043 3.23438 8.59375 3.23438C6.65508 3.23438 5.07812 4.68553 5.07812 6.46875C5.07812 8.13086 6.44766 9.50403 8.20312 9.68336V9.68336ZM8.98438 14.0156V13.2969H16.0156V14.0156H8.98438ZM8.59375 3.95312C8.78828 3.95312 8.97969 3.97325 9.1668 4.01027C9.05 4.33155 8.98438 4.67403 8.98438 5.03125H9.76562C9.76562 3.64406 10.9926 2.51562 12.5 2.51562C14.0074 2.51562 15.2344 3.64406 15.2344 5.03125H16.0156C16.0156 4.67403 15.95 4.33155 15.8332 4.01027C16.0203 3.97325 16.2117 3.95312 16.4062 3.95312C17.9137 3.95312 19.1406 5.08156 19.1406 6.46875C19.1406 7.85594 17.9137 8.98438 16.4062 8.98438C16.1902 8.98438 16.0156 9.14538 16.0156 9.34375V12.5781H8.98438V9.34375C8.98438 9.14538 8.80977 8.98438 8.59375 8.98438C7.08633 8.98438 5.85938 7.85594 5.85938 6.46875C5.85938 5.08156 7.08633 3.95312 8.59375 3.95312Z" fill="black"/>
<path d="M18.3594 6.46875H17.5781C17.5781 7.06316 17.0523 7.54688 16.4062 7.54688V8.26562C17.4832 8.26562 18.3594 7.45955 18.3594 6.46875Z" fill="black"/>
<path d="M7.42188 15.4531H17.5781V16.1719H7.42188V15.4531Z" fill="black"/>
</svg>
